<svg width="36" height="16" viewBox="0 0 36 16" fill="none" xmlns="http://www.w3.org/2000/svg">
    <path d="M0.135445 0.424H5.92145C6.72811 0.424 7.49078 0.497333 8.20945 0.644C8.92811 0.790666 9.55145 1.04733 10.0794 1.414C10.6221 1.766 11.0474 2.25 11.3554 2.866C11.6781 3.46733 11.8394 4.23 11.8394 5.154C11.8394 6.06333 11.6928 6.826 11.3994 7.442C11.1061 8.058 10.7028 8.54933 10.1894 8.916C9.67611 9.28267 9.06745 9.54667 8.36345 9.708C7.65945 9.85467 6.89678 9.928 6.07545 9.928H3.56745V16H0.135445V0.424ZM3.56745 7.024H5.85545C6.16345 7.024 6.45678 6.99467 6.73545 6.936C7.02878 6.87733 7.28545 6.782 7.50545 6.65C7.74011 6.50333 7.92345 6.31267 8.05545 6.078C8.20211 5.82867 8.27545 5.52067 8.27545 5.154C8.27545 4.758 8.18011 4.44267 7.98945 4.208C7.81345 3.95867 7.57878 3.768 7.28545 3.636C7.00678 3.504 6.69145 3.42333 6.33945 3.394C5.98745 3.35 5.65011 3.328 5.32745 3.328H3.56745V7.024ZM13.9489 0.424H17.3809V16H13.9489V0.424ZM20.5026 0.424H25.1666L31.7886 11.248H31.8326V0.424H35.2646V16H30.7766L23.9786 4.912H23.9346V16H20.5026V0.424Z" fill="#FF1F23"/>
</svg>
