<svg width="30" height="30" viewBox="0 0 30 30" fill="none" xmlns="http://www.w3.org/2000/svg">
    <path fill-rule="evenodd" clip-rule="evenodd" d="M4.17188 8.9848C4.17188 8.6657 4.29863 8.35966 4.52426 8.13402C4.74989 7.90838 5.05591 7.78162 5.375 7.78162H24.625C24.9441 7.78162 25.2501 7.90838 25.4757 8.13402C25.7014 8.35966 25.8281 8.6657 25.8281 8.9848C25.8281 9.3039 25.7014 9.60994 25.4757 9.83558C25.2501 10.0612 24.9441 10.188 24.625 10.188H5.375C5.05591 10.188 4.74989 10.0612 4.52426 9.83558C4.29863 9.60994 4.17188 9.3039 4.17188 8.9848ZM7.78125 15.0007C7.78125 14.6816 7.90801 14.3756 8.13364 14.1499C8.35927 13.9243 8.66529 13.7975 8.98438 13.7975H21.0156C21.3347 13.7975 21.6407 13.9243 21.8664 14.1499C22.092 14.3756 22.2188 14.6816 22.2188 15.0007C22.2188 15.3198 22.092 15.6259 21.8664 15.8515C21.6407 16.0771 21.3347 16.2039 21.0156 16.2039H8.98438C8.66529 16.2039 8.35927 16.0771 8.13364 15.8515C7.90801 15.6259 7.78125 15.3198 7.78125 15.0007ZM11.3906 21.0166C11.3906 20.6975 11.5174 20.3915 11.743 20.1659C11.9686 19.9402 12.2747 19.8134 12.5938 19.8134H17.4062C17.7253 19.8134 18.0314 19.9402 18.257 20.1659C18.4826 20.3915 18.6094 20.6975 18.6094 21.0166C18.6094 21.3357 18.4826 21.6418 18.257 21.8674C18.0314 22.0931 17.7253 22.2198 17.4062 22.2198H12.5938C12.2747 22.2198 11.9686 22.0931 11.743 21.8674C11.5174 21.6418 11.3906 21.3357 11.3906 21.0166Z" fill="white"/>
</svg>
