<svg width="18" height="20" viewBox="0 0 18 20" fill="none" xmlns="http://www.w3.org/2000/svg">
    <path fill-rule="evenodd" clip-rule="evenodd" d="M9 2.60797C7.758 0.174973 4.12 -0.147026 2.577 2.42197C2.24662 2.965 2.06412 3.58504 2.04763 4.22045C2.03114 4.85587 2.18124 5.48454 2.483 6.04397C1.78742 6.16567 1.15705 6.52883 0.70287 7.06953C0.248685 7.61024 -0.000207926 8.29383 1.30333e-07 8.99997V17C1.30333e-07 17.7956 0.316071 18.5587 0.87868 19.1213C1.44129 19.6839 2.20435 20 3 20H15C15.7956 20 16.5587 19.6839 17.1213 19.1213C17.6839 18.5587 18 17.7956 18 17V8.99997C18.0002 8.29383 17.7513 7.61024 17.2971 7.06953C16.8429 6.52883 16.2126 6.16567 15.517 6.04397C15.8188 5.48454 15.9689 4.85587 15.9524 4.22045C15.9359 3.58504 15.7534 2.965 15.423 2.42197C13.88 -0.147026 10.242 0.174973 9 2.60797ZM7.782 5.99797L7.379 3.98597C7.078 2.48097 5.082 2.13597 4.292 3.45097C3.62 4.57097 4.425 5.99397 5.73 5.99597L7.782 5.99797ZM8 7.99997H3C2.73478 7.99997 2.48043 8.10533 2.29289 8.29287C2.10536 8.4804 2 8.73476 2 8.99997V12H8V7.99997ZM8 14H2V17C2 17.2652 2.10536 17.5195 2.29289 17.7071C2.48043 17.8946 2.73478 18 3 18H8V14ZM10 18V14H16V17C16 17.2652 15.8946 17.5195 15.7071 17.7071C15.5196 17.8946 15.2652 18 15 18H10ZM16 12H10V7.99997H15C15.2652 7.99997 15.5196 8.10533 15.7071 8.29287C15.8946 8.4804 16 8.73476 16 8.99997V12ZM10.218 5.99797L12.27 5.99597C13.575 5.99397 14.38 4.56997 13.708 3.45097C12.918 2.13597 10.922 2.48097 10.621 3.98597L10.218 5.99797Z" fill="white"/>
</svg>
