<svg width="26" height="32" viewBox="0 0 26 32" fill="none" xmlns="http://www.w3.org/2000/svg">
    <path d="M7.23081 31.7298C9.89581 31.7298 12.8484 29.9171 16.0877 26.2917C17.2356 28.2089 18.3193 29.868 19.339 31.2689H25.6327C23.9497 29.3026 21.9408 26.2856 19.6074 22.2179C21.3416 20.0304 22.5848 18.1317 23.337 16.5218C24.0899 14.9119 24.5937 13.0808 24.8485 11.0285H19.1484C19.0715 12.4295 18.8833 13.7874 18.5837 15.1024C18.2841 16.4173 17.8796 17.6954 17.3693 18.9366C17.0633 18.3591 16.8399 17.935 16.6997 17.6647L15.3035 14.918C13.8112 12.0178 11.8727 10.5676 9.4881 10.5676C6.81028 10.5676 4.55941 11.686 2.73548 13.9226C0.911557 16.1592 0 18.9182 0 22.1994C0 25.026 0.66965 27.321 2.00896 29.0845C3.34746 30.848 5.08808 31.7298 7.23081 31.7298ZM8.46439 27.8109C7.50557 27.8109 6.78946 27.3118 6.31685 26.3138C5.84345 25.3157 5.60715 23.8123 5.60715 21.8037C5.60715 19.7452 5.92355 18.011 6.55636 16.6012C7.18916 15.1914 7.97176 14.4865 8.90415 14.4865C9.48969 14.4865 10.076 14.9793 10.6624 15.9649L11.9008 18.0796C12.0738 18.3915 12.4334 19.1089 12.9797 20.2318C13.2465 20.7682 13.4596 21.2048 13.619 21.5417L14.4184 23.0949C11.8343 26.2389 9.84936 27.8109 8.46439 27.8109Z" fill="white"/>
    <path fill-rule="evenodd" clip-rule="evenodd" d="M12.5007 0L13.5815 2.06315L16 2.39422L14.25 4.00129L14.663 6.27027L12.5007 5.19798L10.3377 6.27027L10.75 4.00129L9 2.39422L11.4185 2.06315L12.5007 0Z" fill="#F94B2F"/>
</svg>
