<svg width="24" height="24" viewBox="0 0 24 24" fill="none" xmlns="http://www.w3.org/2000/svg">
    <path fill-rule="evenodd" clip-rule="evenodd" d="M8.043 5.17578C8.62906 4.73158 9.29929 4.4111 10.013 4.23383C9.98026 3.95353 10.0072 3.66947 10.0921 3.40033C10.177 3.13119 10.3179 2.88306 10.5055 2.67225C10.6931 2.46145 10.9233 2.29273 11.1808 2.17721C11.4383 2.06168 11.7173 2.00195 11.9995 2.00195C12.2817 2.00195 12.5608 2.06168 12.8182 2.17721C13.0757 2.29273 13.3059 2.46145 13.4935 2.67225C13.6811 2.88306 13.822 3.13119 13.9069 3.40033C13.9918 3.66947 14.0187 3.95353 13.986 4.23383C14.7001 4.41098 15.3706 4.73145 15.957 5.17578C16.933 5.92575 17.498 6.9307 17.832 7.93365C18.164 8.9286 18.284 9.96555 18.342 10.8385C18.366 11.1935 18.381 11.5345 18.393 11.8355L18.402 12.0384C18.417 12.3984 18.433 12.6684 18.46 12.8664C18.655 14.3283 18.898 15.3533 19.244 16.1732C19.582 16.9742 20.034 17.6192 20.707 18.2921C20.8468 18.432 20.942 18.6101 20.9806 18.8041C21.0192 18.998 20.9993 19.1991 20.9237 19.3817C20.848 19.5644 20.7199 19.7206 20.5555 19.8305C20.391 19.9403 20.1978 19.999 20 19.9991H13.732C13.9074 20.3031 13.9996 20.6479 13.9995 20.9989C13.9994 21.3499 13.9069 21.6947 13.7313 21.9986C13.5558 22.3025 13.3033 22.5549 12.9993 22.7303C12.6953 22.9058 12.3505 22.9981 11.9995 22.9981C11.6485 22.9981 11.3037 22.9058 10.9997 22.7303C10.6957 22.5549 10.4432 22.3025 10.2677 21.9986C10.0921 21.6947 9.99962 21.3499 9.9995 20.9989C9.99938 20.6479 10.0916 20.3031 10.267 19.9991H4C3.80225 19.999 3.60895 19.9403 3.44454 19.8305C3.28013 19.7206 3.15199 19.5644 3.07632 19.3817C3.00065 19.1991 2.98085 18.998 3.01942 18.8041C3.05798 18.6101 3.15319 18.432 3.293 18.2921C3.967 17.6182 4.419 16.9782 4.756 16.1802C5.1 15.3633 5.343 14.3383 5.54 12.8664C5.567 12.6674 5.583 12.3984 5.598 12.0374L5.607 11.8355C5.619 11.5355 5.634 11.1935 5.657 10.8385C5.716 9.96555 5.836 8.9286 6.167 7.93365C6.502 6.9307 7.067 5.92475 8.043 5.17578ZM6.069 17.9992C6.266 17.6732 6.441 17.3292 6.598 16.9582C7.043 15.9053 7.316 14.6793 7.523 13.1324C7.56157 12.7979 7.58592 12.462 7.596 12.1254L7.606 11.9095C7.618 11.6095 7.631 11.2995 7.653 10.9725C7.707 10.1585 7.813 9.32058 8.065 8.56562C8.315 7.81866 8.691 7.19969 9.261 6.76171C9.825 6.32873 10.672 5.99974 12 5.99974C13.328 5.99974 14.175 6.32873 14.739 6.76171C15.309 7.19969 15.686 7.81866 15.935 8.56562C16.187 9.32058 16.293 10.1585 16.347 10.9725C16.369 11.2995 16.382 11.6095 16.394 11.9085L16.404 12.1244C16.419 12.4744 16.437 12.8314 16.477 13.1324C16.683 14.6703 16.956 15.8953 17.401 16.9502C17.558 17.3232 17.735 17.6702 17.933 17.9992H6.07H6.069Z" fill="white"/>
</svg>
